<svg xmlns="http://www.w3.org/2000/svg" viewBox="0 0 640 360" role="img" aria-labelledby="title desc">
  <title id="title">GNSS jamming detection pipeline</title><desc id="desc">A satellite signal becomes a spectrogram and passes through a compact dictionary-based contrastive learning model.</desc>
  <defs><linearGradient id="bg" x1="0" y1="0" x2="1" y2="1"><stop stop-color="#06172c"/><stop offset="1" stop-color="#174b82"/></linearGradient><linearGradient id="spec" x1="0" y1="1" x2="1" y2="0"><stop stop-color="#0b2447"/><stop offset=".35" stop-color="#2168c7"/><stop offset=".7" stop-color="#62d4e9"/><stop offset="1" stop-color="#ffd166"/></linearGradient></defs>
  <rect width="640" height="360" rx="26" fill="url(#bg)"/>
  <g transform="translate(77 75)" stroke="#d8ebff" stroke-width="4" fill="none"><path d="M0 35h68M34 0v70"/><rect x="19" y="20" width="30" height="30" rx="5" fill="#d8ebff"/><path d="M0 12l19 8M68 12l-19 8M0 58l19-8M68 58l-19-8"/><path d="M34 70c0 44 35 45 35 86" stroke="#6fd8ff" stroke-dasharray="8 8"/></g>
  <text x="52" y="54" fill="#eaf3ff" font-family="Arial, sans-serif" font-size="14" font-weight="700">GNSS IQ SIGNAL</text>
  <g transform="translate(182 91)"><rect width="166" height="176" rx="18" fill="#081a32" stroke="#8db9f2" stroke-width="3"/><g opacity=".9"><rect x="15" y="18" width="136" height="12" fill="url(#spec)"/><rect x="15" y="38" width="136" height="8" fill="#1759b3"/><rect x="15" y="54" width="136" height="22" fill="url(#spec)"/><rect x="15" y="84" width="136" height="9" fill="#2a7bd3"/><rect x="15" y="101" width="136" height="30" fill="url(#spec)"/><rect x="15" y="139" width="136" height="18" fill="#1e588e"/></g><path d="M50 14v147M89 14v147M124 14v147" stroke="#fff" opacity=".14"/></g>
  <text x="215" y="292" fill="#b8d6f8" font-family="Arial, sans-serif" font-size="13" font-weight="700">SPECTROGRAM</text>
  <g fill="none" stroke="#6fd8ff" stroke-width="4"><path d="M348 179H390"/><path d="M383 172l14 7-14 7z"/></g>
  <g transform="translate(400 78)"><rect width="188" height="204" rx="22" fill="#f5faff" stroke="#9fc5ff" stroke-width="3"/><g fill="#2168c7"><rect x="24" y="28" width="140" height="32" rx="9"/><rect x="38" y="80" width="112" height="32" rx="9" opacity=".82"/><rect x="52" y="132" width="84" height="32" rx="9" opacity=".64"/></g><g fill="#0b2447" font-family="Arial, sans-serif" text-anchor="middle"><text x="94" y="49" font-size="13" font-weight="700" fill="#fff">CONTRASTIVE ENCODER</text><text x="94" y="101" font-size="13" font-weight="700" fill="#fff">DICTIONARY BANK</text><text x="94" y="153" font-size="13" font-weight="700" fill="#fff">COMPACT MODEL</text><text x="94" y="190" font-size="16" font-weight="700">JAMMING?</text></g></g>
</svg>
