<svg xmlns="http://www.w3.org/2000/svg" viewBox="0 0 640 360" role="img" aria-labelledby="title desc">
  <title id="title">Outlier-robust neural network training</title><desc id="desc">Training samples with corrupted labels are assigned low weights before entering a neural network.</desc>
  <defs><linearGradient id="bg" x1="0" y1="0" x2="1" y2="1"><stop stop-color="#071a33"/><stop offset="1" stop-color="#1759b3"/></linearGradient><filter id="s"><feDropShadow dx="0" dy="7" stdDeviation="8" flood-opacity=".25"/></filter></defs>
  <rect width="640" height="360" rx="26" fill="url(#bg)"/>
  <g font-family="Arial, sans-serif" fill="#eaf3ff" font-size="14" font-weight="700"><text x="48" y="47">TRAINING SAMPLES</text><text x="262" y="47">ADAPTIVE WEIGHTS</text><text x="470" y="47">ROBUST MODEL</text></g>
  <g transform="translate(62 76)"><g fill="#eaf3ff" stroke="#9fc5ff" stroke-width="2"><circle cx="30" cy="25" r="16"/><circle cx="30" cy="74" r="16"/><circle cx="30" cy="123" r="16"/><circle cx="30" cy="172" r="16"/><circle cx="30" cy="221" r="16"/></g><g fill="#1759b3" font-family="Arial, sans-serif" font-size="13" font-weight="700" text-anchor="middle"><text x="30" y="30">A</text><text x="30" y="79">B</text><text x="30" y="128">A</text><text x="30" y="177">B</text><text x="30" y="226">A</text></g><g stroke="#ff6685" stroke-width="4"><path d="M17 110l26 26M43 110l-26 26"/><path d="M17 208l26 26M43 208l-26 26"/></g></g>
  <g transform="translate(250 84)"><g><rect width="140" height="32" rx="16" fill="#eaf3ff"/><rect y="49" width="108" height="32" rx="16" fill="#bdd7f7"/><rect y="98" width="45" height="32" rx="16" fill="#ff9ab0"/><rect y="147" width="123" height="32" rx="16" fill="#d6e8ff"/><rect y="196" width="38" height="32" rx="16" fill="#ff9ab0"/></g><g fill="#0b2447" font-family="Arial, sans-serif" font-size="12" font-weight="700"><text x="12" y="21">w = 0.96</text><text x="12" y="70">w = 0.78</text><text x="12" y="119">w = 0.12</text><text x="12" y="168">w = 0.87</text><text x="12" y="217">w = 0.08</text></g></g>
  <g transform="translate(456 86)" stroke="#8db9f2" stroke-width="3"><g fill="#eaf3ff"><circle cx="18" cy="28" r="12"/><circle cx="18" cy="92" r="12"/><circle cx="18" cy="156" r="12"/><circle cx="80" cy="58" r="12"/><circle cx="80" cy="126" r="12"/><circle cx="142" cy="92" r="15"/></g><g><path d="M30 28l38 30M30 28l38 98M30 92l38-34M30 92l38 34M30 156l38-30M30 156l38-98M92 58l35 27M92 126l35-27"/></g></g>
  <g fill="none" stroke="#6fd8ff" stroke-width="4"><path d="M120 197H227"/><path d="M390 197H440"/></g><g fill="#6fd8ff"><path d="M224 190l14 7-14 7z"/><path d="M437 190l14 7-14 7z"/></g>
  <text x="526" y="299" fill="#bfe9ff" font-family="Arial, sans-serif" font-size="13" font-weight="700" text-anchor="middle">CLEANER DECISION BOUNDARY</text>
</svg>
